<?xml version="1.0" encoding="utf-8"?>
<!-- Generator: Adobe Illustrator 17.0.0, SVG Export Plug-In . SVG Version: 6.00 Build 0)  -->
<!DOCTYPE svg PUBLIC "-//W3C//DTD SVG 1.1//EN" "http://www.w3.org/Graphics/SVG/1.1/DTD/svg11.dtd">
<svg version="1.1" id="Layer_1" xmlns="http://www.w3.org/2000/svg" xmlns:xlink="http://www.w3.org/1999/xlink" x="0px" y="0px"
	 width="496px" height="496px" viewBox="0 0 496 496" enable-background="new 0 0 496 496" xml:space="preserve">
<path fill="#2FCCC4" d="M429.656,314.344l52.688-52.688C485.969,258.031,488,253.129,488,248s-2.031-10.039-5.656-13.656l-24-24
	l-80,80l24,24C405.969,317.961,410.879,320,416,320S426.031,317.961,429.656,314.344z"/>
<path fill="#2FCCC4" d="M185.367,280c-8.176,0-15.863,3.184-21.656,8.969L54.344,398.344l43.313,43.313l109.367-109.375
	c5.793-5.785,8.977-13.465,8.977-21.656C216,293.742,202.266,280,185.367,280z"/>
<path d="M488,228.688L451.313,192h-32l-11.945-11.945l-8-40L295.602,36.281C272.191,12.879,241.09,0,208,0
	s-64.191,12.879-87.602,36.281L92.688,64H164c15.91,0,30.879,6.191,42.145,17.457l32.398,32.406
	C249.801,125.113,256,140.078,256,156s-6.199,30.887-17.457,42.145L212,224.688l-12-12L36.688,376h-1.375
	c-9.441,0-18.305,3.672-24.977,10.344S0,401.879,0,411.313v24L60.688,496h24c9.441,0,18.305-3.672,24.977-10.344
	S120,470.121,120,460.688v-1.375L283.313,296l-12-12l32.199-32.199C311.129,244.184,321.238,240,332,240
	c10.535,0,20.449,4.016,28,11.32v31.992L396.688,320c5.09,5.09,12.129,8,19.313,8s14.223-2.91,19.313-8L488,267.313
	c5.16-5.168,8-12.023,8-19.313C496,240.695,493.16,233.832,488,228.688z M98.336,474.344C94.695,477.992,89.848,480,84.688,480
	H67.313L16,428.688v-17.375c0-5.16,2.008-10.008,5.664-13.656c3.641-3.648,8.488-5.656,13.648-5.656h1.375L104,459.313v1.375
	C104,465.84,101.992,470.695,98.336,474.344z M112,444.688L51.313,384L200,235.313L260.688,296L112,444.688z M476.688,256
	L424,308.688c-4.215,4.199-11.793,4.199-16,0l-32-32v-32l-4.199-4.199C361.168,229.848,347.031,224,332,224
	s-29.168,5.848-39.801,16.488L260,272.688L223.313,236l26.543-26.543C264.137,195.176,272,176.191,272,156
	s-7.863-39.176-22.145-53.457l-32.398-32.406C203.168,55.855,184.184,48,164,48h-32.688l0.406-0.406
	C152.098,27.215,179.184,16,208,16s55.902,11.215,76.289,31.594l100.344,100.352l8,40L412.688,208h32l32,32
	c2.105,2.105,3.313,5.016,3.313,8C480,251.023,478.824,253.855,476.688,256z"/>
</svg>
