<?xml version="1.0" encoding="UTF-8" standalone="no"?> <svg height="512.001pt" viewBox="0 0 512.00101 512.00101" width="512.001pt" xmlns="http://www.w3.org/2000/svg"><path d="m448.636719 146.347656-50.488281-50.488281-338.445313 338.449219c-17.148437 17.148437-21.460937 42.269531-12.945313 63.429687 21.160157 8.515625 46.28125 4.207031 63.429688-12.941406l14.820312-14.820313 186.882813-186.886718zm0 0" fill="#ffb954"/><path d="m110.1875 484.796875 38.527344-38.527344-50.105469-50.105469-38.527344 38.527344c-17.074219 17.074219-21.417969 42.050782-13.046875 63.152344 21.101563 8.371094 46.078125 4.027344 63.152344-13.046875zm0 0" fill="#e889c3"/><path d="m395.34375 93.054688 53.292969 53.292968 34.257812-87.550781zm0 0" fill="#b3b6c3"/><path d="m501.984375 10.019531-65.421875 25.597657 39.820312 39.820312zm0 0" fill="#898998"/><path d="m496.796875 407.710938-392.507813-392.507813c-6.941406-6.9375-18.191406-6.9375-25.128906 0l-38.796875 38.796875c6.9375-6.9375 18.1875-6.9375 25.128907 0l392.507812 392.507812c6.9375 6.941407 6.9375 18.191407 0 25.128907l38.796875-38.796875c6.9375-6.9375 6.9375-18.1875 0-25.128906zm0 0" fill="#fff"/><path d="m458 446.507812-392.507812-392.507812c-6.9375-6.9375-18.191407-6.9375-25.128907 0l-25.160156 25.160156c-6.9375 6.9375-6.9375 18.1875 0 25.128906l392.507813 392.507813c6.941406 6.9375 18.191406 6.9375 25.128906 0l25.160156-25.160156c6.9375-6.9375 6.9375-18.191407 0-25.128907zm0 0" fill="#62cd4d"/><path d="m503.867188 400.640625-91.882813-91.882813s0 0-.003906 0v-.003906l-34.773438-34.773437c-.003906-.003907-.007812-.007813-.011719-.011719-.003906-.003906-.007812-.007812-.011718-.011719l-21.007813-21.007812 99.53125-99.53125c.976563-.976563 1.738281-2.140625 2.238281-3.425781l53.347657-136.332032c1.449219-3.699218.570312-7.90625-2.238281-10.714844-2.8125-2.808593-7.019532-3.6875-10.714844-2.238281l-136.332032 53.347657c-1.285156.5-2.449218 1.265624-3.425781 2.238281l-99.53125 99.53125-21.003906-21.003907s0 0-.003906 0c0-.003906 0-.003906 0-.003906l-34.78125-34.78125s0 0-.003907-.003906c0 0 0 0-.003906-.003906l-34.792968-34.792969s0-.003906-.003907-.003906c0 0-.003906 0-.003906-.003907l-34.777344-34.777343s-.003906-.003907-.003906-.003907c0-.003906-.003906-.003906-.003906-.003906l-22.308594-22.308594c-5.246094-5.246093-12.21875-8.132812-19.636719-8.132812-7.414062 0-14.386718 2.886719-19.632812 8.132812l-63.957032 63.957032c-5.246093 5.246094-8.132812 12.21875-8.132812 19.632812 0 7.417969 2.886719 14.390625 8.132812 19.636719l147.691407 147.691406-135.691407 135.691407c-12.972656 12.96875-20.1132808 30.21875-20.1132808 48.5625s7.1445308 35.589843 20.1132808 48.5625c13.390626 13.386718 30.976563 20.082031 48.5625 20.082031 17.585938 0 35.175782-6.695313 48.5625-20.082031l135.691407-135.691407 30.097656 30.097657c3.90625 3.90625 10.234375 3.90625 14.144531 0 3.902344-3.902344 3.902344-10.234376 0-14.140626l-120.152344-120.152343-154.765624-154.761719c-1.46875-1.46875-2.273438-3.417969-2.273438-5.496094 0-2.074218.804688-4.023437 2.273438-5.492187l63.957031-63.957031c1.46875-1.46875 3.417969-2.273438 5.492187-2.273438 2.074219 0 4.027344.804688 5.492188 2.273438l15.242187 15.242187-24.746093 24.746094c-3.902344 3.90625-3.902344 10.238281 0 14.140625 1.953124 1.953125 4.511718 2.929687 7.070312 2.929687s5.117188-.976562 7.070312-2.929687l24.75-24.746094 20.644532 20.648438-7.777344 7.777343c-3.90625 3.902344-3.90625 10.234375 0 14.140625 1.953125 1.953125 4.511719 2.925782 7.070312 2.925782 2.558594 0 5.117188-.976563 7.070313-2.925782l7.777344-7.777344 20.65625 20.65625-24.746094 24.75c-3.902344 3.902344-3.902344 10.234376 0 14.140626 1.953125 1.953124 4.511719 2.929687 7.070313 2.929687 2.558593 0 5.117187-.980469 7.070312-2.929687l24.75-24.746094 20.644531 20.644531-7.777343 7.777344c-3.90625 3.902343-3.90625 10.234375 0 14.140625 1.953124 1.953125 4.511718 2.929687 7.070312 2.929687s5.117188-.976562 7.070312-2.929687l7.777344-7.777344 20.644532 20.644531-24.746094 24.746094c-3.90625 3.90625-3.90625 10.238281 0 14.140625 1.953125 1.953125 4.511718 2.929688 7.070312 2.929688s5.117188-.976563 7.070313-2.929688l24.746093-24.746094 20.644532 20.648438-7.777344 7.777344c-3.902344 3.902343-3.902344 10.234374 0 14.140624 1.953125 1.953126 4.511719 2.929688 7.070312 2.929688 2.558594 0 5.121094-.976562 7.070313-2.929688l7.777344-7.777343 20.644531 20.644531-24.734375 24.738281c-3.90625 3.902344-3.90625 10.234375 0 14.140625 1.953125 1.953125 4.511719 2.929688 7.070313 2.929688 2.558593 0 5.117187-.976563 7.070312-2.929688l24.738281-24.738281 20.644531 20.644531-7.777343 7.777344c-3.90625 3.90625-3.90625 10.238281 0 14.144531 1.953125 1.949219 4.511719 2.929688 7.070312 2.929688 2.558594 0 5.117188-.980469 7.070313-2.929688l7.777344-7.777343 20.644531 20.644531-24.746094 24.746093c-3.90625 3.90625-3.90625 10.238282 0 14.144532 1.953125 1.949218 4.511719 2.925781 7.070313 2.925781 2.558593 0 5.117187-.976563 7.070312-2.925781l24.746094-24.75 20.648437 20.648437-7.78125 7.777344c-3.902343 3.902344-3.902343 10.234375 0 14.140625 1.953125 1.953125 4.511719 2.929688 7.070313 2.929688s5.117187-.976563 7.070312-2.929688l7.78125-7.777344 20.644532 20.644532-24.746094 24.746093c-3.90625 3.90625-3.90625 10.238281 0 14.144531 1.953125 1.949219 4.511718 2.929688 7.070312 2.929688s5.117188-.980469 7.070313-2.929688l24.746093-24.746093 15.242188 15.242187c1.46875 1.464844 2.273438 3.417969 2.273438 5.492188 0 2.074218-.808594 4.023437-2.273438 5.492187l-63.949219 63.957031c-1.46875 1.46875-3.417969 2.273438-5.492187 2.273438-2.074219 0-4.027344-.804688-5.492188-2.273438l-67.015625-67.015624c-3.90625-3.902344-10.234375-3.902344-14.144531 0-3.902344 3.90625-3.902344 10.238281 0 14.144531l67.015625 67.011719c5.246094 5.246093 12.21875 8.132812 19.636719 8.132812 7.414062 0 14.390625-2.886719 19.632812-8.132812l63.957032-63.957032c5.246093-5.242187 8.132812-12.21875 8.132812-19.632812 0-7.417969-2.890625-14.390625-8.132812-19.636719zm-400.75 77.085937c-18.976563 18.980469-49.863282 18.980469-68.84375 0-9.191407-9.195312-14.257813-21.417968-14.257813-34.421874 0-13.003907 5.0625-25.226563 14.257813-34.421876l31.457031-31.457031 68.84375 68.84375zm135.691406-135.691406-90.09375 90.089844-68.839844-68.839844 90.089844-90.09375zm206.085937-213.570312-61.359375-61.359375 50.582032-19.792969 30.570312 30.570312zm27.75-70.910156-18.199219-18.199219 29.898438-11.695313zm-106.992187 19.949218 67.742187 67.742188c.375.375.777344.703125 1.191407 1.007812l-92.554688 92.554688-34.410156-34.414063c-.003906 0-.003906 0-.003906-.003906l-34.425782-34.425781zm0 0"/><path d="m317.457031 396.539062c-2.640625 0-5.210937 1.058594-7.070312 2.929688-1.871094 1.859375-2.929688 4.441406-2.929688 7.070312 0 2.628907 1.058594 5.199219 2.929688 7.070313 1.859375 1.859375 4.429687 2.929687 7.070312 2.929687 2.628907 0 5.207031-1.070312 7.070313-2.929687 1.855468-1.859375 2.917968-4.441406 2.917968-7.070313 0-2.628906-1.0625-5.210937-2.917968-7.070312-1.863282-1.871094-4.441406-2.929688-7.070313-2.929688zm0 0"/></svg>