<?xml version="1.0" encoding="UTF-8" standalone="no"?> <svg id="Layer_1" data-name="Layer 1" xmlns="http://www.w3.org/2000/svg" viewBox="0 0 128 128"><defs><style>.cls-1{fill:#2d3e50;}.cls-2{fill:#2e79bd;}</style></defs><title>n</title><path class="cls-1" d="M121.23345,73.81287c-.00921.05677-4.5278-1.60184-4.85308-1.73379a21.50329,21.50329,0,0,1-6.71728-4.19332c-5.18142-4.672-9.947-9.94551-15.02873-14.817A67.94487,67.94487,0,0,0,79.06249,41.32811a62.93335,62.93335,0,0,0-13.37933-5.10623,21.89653,21.89653,0,0,1-29.39923.61066C20.50491,42.083,6.76655,56.05612,6.76655,73.348c0,.23935.00306.48332.00767.72267.155,7.09472,1.05408,16.81469,5.206,22.56688.00461.0046.00767.00767.00767.01227,3.17452,11.04254,5.1845,17.68158,8.92671,29.42839H39.20989c-.02455-3.61642-.56924-7.47677-.57231-11.67317a60.43252,60.43252,0,0,0,16.46332,2.25852h.0445a101.718,101.718,0,0,0,12.46026-.382l1.08938,1.53586,2.56386,3.61181c.784,1.2336,1.59569,2.43651,2.46106,3.5842q.40737.54312.83314,1.06789H95.69765L92.83307,111.499a1.977,1.977,0,0,1,.41733-.32988q.37054-.12657.73647-.25931c.03222-.00459.06445-.00766.09666-.01073,16.24852-4.11352,24.30987-15.95392,27.1453-19.0103Q121.22884,82.84852,121.23345,73.81287ZM67.0349,56.768H34.25708a3.529,3.529,0,0,1,0-7.0579H67.0349a3.529,3.529,0,1,1,0,7.0579ZM94.59908,80.455a5.77827,5.77827,0,1,1,5.77827-5.77827A5.77907,5.77907,0,0,1,94.59908,80.455Z"/><path class="cls-2" d="M50.646,1.91875A18.35064,18.35064,0,1,0,68.99648,20.26954,18.37134,18.37134,0,0,0,50.646,1.91875Zm0,32.13246A13.78182,13.78182,0,1,1,64.42766,20.26954,13.79726,13.79726,0,0,1,50.646,34.05121Z"/><path class="cls-2" d="M49.486,26.739a9.35267,9.35267,0,0,1-2.36981-.45,13.6289,13.6289,0,0,1-1.34986-.54989l.8599-2.2998a10.5085,10.5085,0,0,0,1.66982.6199,7.34813,7.34813,0,0,0,2.04985.27992,3.00127,3.00127,0,0,0,1.67-.3299,1.086,1.086,0,0,0,.44991-.92992,1.14546,1.14546,0,0,0-.17994-.65,1.76384,1.76384,0,0,0-.51992-.49,5.1715,5.1715,0,0,0-.86-.43q-.52019-.20983-1.19989-.44991-.65995-.24007-1.28993-.53a5.19583,5.19583,0,0,1-1.13982-.70994,3.06162,3.06162,0,0,1-1.13-2.49976,4.24241,4.24241,0,0,1,.19-1.27,3.35935,3.35935,0,0,1,.58993-1.10985,3.39531,3.39531,0,0,1,1.04-.84989,5.03677,5.03677,0,0,1,1.51985-.51V11.42005h2.51978v2.07982a11.24285,11.24285,0,0,1,1.79.3,7.92408,7.92408,0,0,1,1.18995.4l-.62,2.39978a9.25712,9.25712,0,0,0-1.52993-.48,8.15883,8.15883,0,0,0-1.82987-.19989,2.31282,2.31282,0,0,0-1.37982.31989,1.00647,1.00647,0,0,0-.41994.84,1.09665,1.09665,0,0,0,.12995.54989,1.19709,1.19709,0,0,0,.41.41,4.4031,4.4031,0,0,0,.68991.35034q.40966.17061.99.3709a14.78988,14.78988,0,0,1,1.62991.70149,6.094,6.094,0,0,1,1.29987.87026,3.5474,3.5474,0,0,1,.8599,1.14935,3.58749,3.58749,0,0,1,.31,1.53919,4.05216,4.05216,0,0,1-.18007,1.18926,3.08017,3.08017,0,0,1-.59988,1.08929,3.6723,3.6723,0,0,1-1.09.85963,5.2802,5.2802,0,0,1-1.64993.51965v2.43982H49.486Z"/></svg>